<svg xmlns="http://www.w3.org/2000/svg" width="24" height="31" fill="none" viewBox="0 0 24 31"><g fill="#8EC2F2" clip-path="url(#a)"><path d="M12 18.25c3.309 0 6-2.691 6-6s-2.691-6-6-6-6 2.691-6 6 2.691 6 6 6m0-9c1.654 0 3 1.345 3 3 0 1.654-1.346 3-3 3-1.655 0-3-1.346-3-3 0-1.655 1.345-3 3-3"/><path d="M11.13 29.97a1.5 1.5 0 0 0 1.74 0c.456-.322 11.173-8.06 11.13-17.72 0-6.617-5.384-12-12-12S0 5.633 0 12.242c-.043 9.668 10.674 17.406 11.13 17.729M12 3.25c4.963 0 9 4.036 9 9.007.031 6.657-6.582 12.635-9 14.595-2.416-1.962-9.031-7.94-9-14.602 0-4.964 4.037-9 9-9"/></g><defs><clipPath id="a"><path fill="#fff" d="M0 .25h24v30H0z"/></clipPath></defs></svg>