<svg xmlns="http://www.w3.org/2000/svg" width="24" height="25" fill="none" viewBox="0 0 24 25"><g clip-path="url(#a)"><path fill="#8EC2F2" d="M18.848 12.977a1.2 1.2 0 0 0-1.697 0l-1.913 1.912c-.886-.263-2.541-.864-3.59-1.912-1.049-1.05-1.649-2.704-1.913-3.59l1.913-1.913a1.2 1.2 0 0 0 0-1.697l-4.8-4.8a1.2 1.2 0 0 0-1.697 0L1.897 4.23a2.4 2.4 0 0 0-.703 1.722c.027 1.709.48 7.644 5.157 12.322 4.678 4.677 10.613 5.128 12.323 5.157h.033c.634 0 1.233-.25 1.686-.703l3.255-3.254a1.2 1.2 0 0 0 0-1.697zm-.153 8.054c-1.497-.025-6.621-.427-10.647-4.454-4.04-4.04-4.43-9.181-4.454-10.649L6 3.522l3.103 3.103L7.55 8.177a1.2 1.2 0 0 0-.326 1.094c.029.138.733 3.41 2.725 5.403s5.264 2.696 5.402 2.725a1.19 1.19 0 0 0 1.095-.326L18 15.522l3.103 3.103z"/></g><defs><clipPath id="a"><path fill="#fff" d="M0 .625h24v24H0z"/></clipPath></defs></svg>