<svg xmlns="http://www.w3.org/2000/svg" width="24" height="27" fill="none" viewBox="0 0 24 27"><g clip-path="url(#a)"><path fill="#8EC2F2" d="M23.71 2.216a1 1 0 0 0-.492-.279.96.96 0 0 0-.558.04l-22 8.32c-.19.075-.353.208-.468.382a1.07 1.07 0 0 0 0 1.181c.115.174.278.307.468.382l9.6 3.993 3.84 9.984c.072.19.196.352.356.468s.349.182.544.188a1 1 0 0 0 .562-.195 1.03 1.03 0 0 0 .358-.492l8-22.88a1.08 1.08 0 0 0-.21-1.092M15 22.923l-2.79-7.28L17 10.66l-1.41-1.466-4.83 5.023-6.96-2.943L21.33 4.69z"/></g><defs><clipPath id="a"><path fill="#fff" d="M0 .875h24v26H0z"/></clipPath></defs></svg>