<svg xmlns="http://www.w3.org/2000/svg" width="72" height="72" fill="none" viewBox="0 0 72 72"><path fill="#0D5C63" d="M55.929 38.995a3.785 3.785 0 0 0-5.357 0l-6.039 6.038c-2.8-.833-8.023-2.727-11.334-6.038s-5.206-8.536-6.039-11.335l6.039-6.039a3.784 3.784 0 0 0 0-5.357L18.045 1.111a3.784 3.784 0 0 0-5.357 0L2.414 11.385a7.57 7.57 0 0 0-2.22 5.436c.087 5.395 1.516 24.132 16.283 38.9S49.98 71.911 55.38 72.002h.106c2 0 3.89-.788 5.323-2.22l10.274-10.274a3.785 3.785 0 0 0 0-5.357zm-.481 25.427c-4.728-.08-20.904-1.348-33.614-14.062C9.082 37.608 7.847 21.375 7.77 16.742l7.596-7.596 9.796 9.797-4.898 4.898a3.79 3.79 0 0 0-1.03 3.455c.09.436 2.314 10.767 8.603 17.056 6.289 6.288 16.62 8.512 17.055 8.603a3.75 3.75 0 0 0 3.456-1.027l4.902-4.898 9.796 9.797z"/></svg>