<svg xmlns="http://www.w3.org/2000/svg" width="70" height="71" fill="none" viewBox="0 0 70 71"><path fill="#0D5C63" d="M68.348 1.162a2.85 2.85 0 0 0-1.417-.804 2.8 2.8 0 0 0-1.611.114L1.862 24.471c-.548.216-1.019.6-1.351 1.1A3.1 3.1 0 0 0 0 27.277c0 .608.178 1.203.51 1.704.333.5.804.885 1.352 1.1l27.69 11.52L40.63 70.398a3 3 0 0 0 1.026 1.35 2.8 2.8 0 0 0 1.57.54 2.8 2.8 0 0 0 1.622-.561 3 3 0 0 0 1.032-1.419L68.954 4.312c.197-.53.244-1.109.137-1.667a3.04 3.04 0 0 0-.743-1.483M43.225 60.889 35.177 39.89l13.817-14.37-4.067-4.229-13.932 14.49-20.076-8.49L61.483 8.3z"/></svg>