<svg xmlns="http://www.w3.org/2000/svg" width="32" height="32" fill="none" viewBox="0 0 32 32"><path fill="#FF7B47" fill-rule="evenodd" d="M18.237 8.772a4.25 4.25 0 1 1-4.72-7.068 4.25 4.25 0 0 1 4.722 7.068zm-1.18-5.3a2.125 2.125 0 1 0-2.363 3.53 2.125 2.125 0 0 0 2.363-3.528zm5.547.064a3.175 3.175 0 0 1 4.026.399 3.215 3.215 0 0 1-1.034 5.228 3.17 3.17 0 0 1-3.475-.693 3.213 3.213 0 0 1 .485-4.932zm1.02 3.42a1.061 1.061 0 1 0 1.498-1.504 1.08 1.08 0 0 0-.746-.318 1.06 1.06 0 0 0-1.063 1.068c.001.283.112.555.31.757zM5.654 25.399h3.847v2.135H5.655a2.54 2.54 0 0 1-1.79-.759 2.57 2.57 0 0 1-.74-1.806v-3.846a2.12 2.12 0 0 1-1.508-.706 2.14 2.14 0 0 1-.616-1.561v-4.637a3.84 3.84 0 0 1 1.105-2.673 3.75 3.75 0 0 1 2.635-1.112h3.91a6.2 6.2 0 0 0-1.169 2.138H4.741a1.7 1.7 0 0 0-1.148.493c-.3.309-.468.723-.467 1.154v4.743H5.25v6.005a.43.43 0 0 0 .106.321.5.5 0 0 0 .298.106zm15.513-13.851a3.75 3.75 0 0 0-2.656-1.112h-5.27a3.75 3.75 0 0 0-2.635 1.112A3.84 3.84 0 0 0 9.5 14.22v6.753c-.003.58.218 1.139.616 1.56a2.12 2.12 0 0 0 1.509.705v4.937a2.56 2.56 0 0 0 .744 1.817 2.56 2.56 0 0 0 1.38.663H18a2.444 2.444 0 0 0 2.126-2.48v-4.939a2.12 2.12 0 0 0 1.509-.705 2.14 2.14 0 0 0 .616-1.56v-6.753a3.83 3.83 0 0 0-1.084-2.673zm-1.041 9.53H18v7.098a.43.43 0 0 1-.128.297.36.36 0 0 1-.297.128h-3.421a.446.446 0 0 1-.425-.425v-7.098h-2.104v-6.86c0-.43.168-.845.467-1.153a1.7 1.7 0 0 1 1.148-.493h5.27a1.65 1.65 0 0 1 1.498 1.02c.08.199.12.412.117.627zm5.971 6.454h-3.846v-2.136h3.825a.5.5 0 0 0 .297-.106.42.42 0 0 0 .128-.323v-6.005h2.125v-4.743c0-.431-.167-.845-.468-1.154a1.7 1.7 0 0 0-1.147-.493H24.27a6.2 6.2 0 0 0-1.17-2.138h3.91c.991.01 1.938.409 2.636 1.112a3.84 3.84 0 0 1 1.105 2.673v4.637c0 .58-.22 1.136-.614 1.557a2.24 2.24 0 0 1-1.511.708v3.846a2.57 2.57 0 0 1-.74 1.806 2.54 2.54 0 0 1-1.789.759M7.376 2.996a3.175 3.175 0 0 0-2.945 1.98 3.22 3.22 0 0 0 .692 3.492 3.181 3.181 0 0 0 5.44-2.266 3.21 3.21 0 0 0-1.967-2.961 3.2 3.2 0 0 0-1.22-.245m0 4.275a1.06 1.06 0 0 1-1.063-1.069 1.07 1.07 0 0 1 1.063-1.068 1.08 1.08 0 0 1 1.062 1.068 1.07 1.07 0 0 1-1.062 1.07" clip-rule="evenodd"/></svg>