<svg xmlns="http://www.w3.org/2000/svg" width="49" height="48" fill="none" viewBox="0 0 49 48"><g clip-path="url(#a)"><path fill="#0D5C63" d="M44.15 22.282a4.7 4.7 0 0 0-1.682.324l-5.74-4.785a6.2 6.2 0 0 0 .241-1.633c0-3.378-2.666-6.093-5.984-6.093S25 12.81 25 16.188c0 .966.24 1.865.628 2.674l-6.964 8.38a5 5 0 0 0-.845-.085c-.428 0-.833.073-1.226.18l-6.135-6.247c.108-.397.18-.81.18-1.245 0-2.701-2.136-4.875-4.788-4.875s-4.787 2.174-4.787 4.874c0 2.701 2.135 4.875 4.787 4.875.429 0 .833-.073 1.226-.18l6.135 6.247a4.7 4.7 0 0 0-.18 1.246c0 2.7 2.136 4.875 4.788 4.875s4.788-2.175 4.788-4.875c0-.578-.115-1.121-.295-1.636l6.973-8.39c.544.161 1.106.276 1.7.276a5.85 5.85 0 0 0 2.712-.685l5.743 4.785q-.068.385-.077.775c0 2.7 2.135 4.875 4.788 4.875 2.652 0 4.787-2.174 4.787-4.875s-2.135-4.875-4.787-4.875"/></g><defs><clipPath id="a"><path fill="#fff" d="M.5 0h48v48H.5z"/></clipPath></defs></svg>