<svg xmlns="http://www.w3.org/2000/svg" width="49" height="48" fill="none" viewBox="0 0 49 48"><g clip-path="url(#a)"><g clip-path="url(#b)"><path fill="#0D5C63" d="M43.589 12.526h-5.07v-5.07a3.38 3.38 0 0 0-3.38-3.38H14.861a3.38 3.38 0 0 0-3.38 3.38v5.07h-5.07a5.07 5.07 0 0 0-5.07 5.07v23.657a3.38 3.38 0 0 0 3.38 3.38H45.28a3.38 3.38 0 0 0 3.38-3.38V17.595a5.07 5.07 0 0 0-5.07-5.07m-28.73-5.07h20.278v5.07H14.861zm30.418 33.797H4.721V26.045H18.24v8.449h13.52v-8.45h13.519zM21.62 26.045h6.76v5.07h-6.76zm-16.898-3.38v-5.07a1.69 1.69 0 0 1 1.69-1.69h37.177a1.69 1.69 0 0 1 1.69 1.69v5.07z"/></g></g><defs><clipPath id="a"><path fill="#fff" d="M.5 0h48v48H.5z"/></clipPath><clipPath id="b"><path fill="#fff" d="M1 4h48v40.709H1z"/></clipPath></defs></svg>