<svg xmlns="http://www.w3.org/2000/svg" width="48" height="48" fill="none" viewBox="0 0 48 48"><g clip-path="url(#a)"><path fill="#0D5C63" d="M42.589 12.526h-5.07v-5.07a3.38 3.38 0 0 0-3.38-3.38H13.861a3.38 3.38 0 0 0-3.38 3.38v5.07h-5.07a5.07 5.07 0 0 0-5.07 5.07v23.657a3.38 3.38 0 0 0 3.38 3.38H44.28a3.38 3.38 0 0 0 3.38-3.38V17.595a5.07 5.07 0 0 0-5.07-5.07m-28.73-5.07h20.278v5.07H13.861zm30.418 33.797H3.721V26.045H17.24v8.449h13.52v-8.45h13.519zM20.62 26.045h6.76v5.07h-6.76zm-16.898-3.38v-5.07a1.69 1.69 0 0 1 1.69-1.69h37.177a1.69 1.69 0 0 1 1.69 1.69v5.07z"/></g><defs><clipPath id="a"><path fill="#fff" d="M0 4h48v40.709H0z"/></clipPath></defs></svg>