<svg xmlns="http://www.w3.org/2000/svg" width="48" height="48" fill="none" viewBox="0 0 48 48"><g fill="#0D5C63" clip-path="url(#a)"><path d="M43.65 13.75H4.35q-.028.002-.03.03v5.405c0 3.544 2.94 6.419 6.558 6.419a6.59 6.59 0 0 0 5.706-3.242.993.993 0 0 1 1.716 0 6.58 6.58 0 0 0 5.7 3.242c2.448 0 4.584-1.31 5.706-3.254a.97.97 0 0 1 .834-.48h.036c.348 0 .66.183.834.48a6.59 6.59 0 0 0 5.712 3.254c3.618 0 6.558-2.875 6.558-6.42V13.78q-.001-.029-.03-.03" opacity="0.15"/><path d="M46.2 9.489V1.897C46.2.847 45.342 0 44.28 0H3.72C2.658 0 1.8.848 1.8 1.897v7.592c-1.002.06-1.8.883-1.8 1.89v7.806a10.4 10.4 0 0 0 .864 4.173c.258.604.576 1.173.936 1.712v20.448a1.91 1.91 0 0 0 1.92 1.897h40.56c1.062 0 1.92-.848 1.92-1.897V25.071a10.4 10.4 0 0 0 .936-1.713c.57-1.322.864-2.727.864-4.173V11.38a1.905 1.905 0 0 0-1.8-1.891M6.12 4.267h35.76v5.216H6.12zm21.72 38.886h-7.68v-6.17h7.68zm14.064 0H31.68v-8.066a1.906 1.906 0 0 0-1.92-1.897H18.24c-1.062 0-1.92.848-1.92 1.897v8.066H6.12V28.8c.174.082.354.165.54.236a10.9 10.9 0 0 0 4.224.836 11 11 0 0 0 6.546-2.146.04.04 0 0 1 .036 0c.716.53 1.496.97 2.322 1.31a10.9 10.9 0 0 0 4.224.836 11 11 0 0 0 6.546-2.146.04.04 0 0 1 .036 0c.716.53 1.496.97 2.322 1.31a10.9 10.9 0 0 0 4.224.836c1.464 0 2.88-.278 4.224-.835q.27-.115.54-.238zm1.776-23.968c0 3.544-2.94 6.419-6.558 6.419a6.59 6.59 0 0 1-5.712-3.254.96.96 0 0 0-.834-.48h-.036a.97.97 0 0 0-.834.48 6.5 6.5 0 0 1-2.409 2.387 6.6 6.6 0 0 1-3.297.867 6.58 6.58 0 0 1-5.7-3.242.993.993 0 0 0-1.716 0 6.54 6.54 0 0 1-2.413 2.377 6.64 6.64 0 0 1-3.293.865c-3.618 0-6.558-2.875-6.558-6.419V13.78q.002-.028.03-.03h39.3q.029.002.03.03z"/></g><defs><clipPath id="a"><path fill="#fff" d="M0 0h48v47.415H0z"/></clipPath></defs></svg>