<svg xmlns="http://www.w3.org/2000/svg" width="48" height="48" fill="none" viewBox="0 0 48 48"><g fill="#fff" clip-path="url(#a)"><path d="M29.142 13.624h11.997v3.445H29.143zm0 8.613h11.997v3.446H29.143zm0 8.613h11.997v3.446H29.143z"/><path d="M44.567 5.011H3.432a3.42 3.42 0 0 0-2.423 1.01A3.46 3.46 0 0 0 .004 8.457v31.007c0 .914.362 1.79 1.005 2.436a3.42 3.42 0 0 0 2.423 1.01h41.135a3.42 3.42 0 0 0 2.423-1.01 3.46 3.46 0 0 0 1.005-2.436V8.457c0-.914-.362-1.79-1.005-2.436a3.42 3.42 0 0 0-2.423-1.01M3.432 8.457h18.854v31.007H3.432zm22.282 31.007V8.457h18.853l.004 31.007z"/></g><defs><clipPath id="a"><path fill="#fff" d="M0 5h48v37.92H0z"/></clipPath></defs></svg>